<svg xmlns:xlink="http://www.w3.org/1999/xlink" xmlns="http://www.w3.org/2000/svg" height="480" width="640" version="1.1" id="mySVG"><defs/>
        <rect x="0" y="0" width="100%" height="100%" fill="black" stroke="none"/><g id="mainGroup" transform="scale(1) translate(320, 240)"><path d="M-228,-174 C-228.33333333333334,-171 -229.66666666666666,-162.83333333333334 -230,-156 C-230.33333333333334,-149.16666666666666 -230.16666666666666,-140.33333333333334 -230,-133 C-229.83333333333334,-125.66666666666667 -229.33333333333334,-118.66666666666667 -229,-112 C-228.66666666666666,-105.33333333333333 -228.5,-101 -228,-93 C-227.5,-85 -226.5,-72.83333333333333 -226,-64 C-225.5,-55.166666666666664 -225.5,-47.333333333333336 -225,-40 C-224.5,-32.666666666666664 -223.33333333333334,-27.5 -223,-20 C-222.66666666666666,-12.5 -223,-2.6666666666666665 -223,5 C-223,12.666666666666666 -223,18.833333333333332 -223,26 C-223,33.166666666666664 -223,41.166666666666664 -223,48 C-223,54.833333333333336 -223,61.333333333333336 -223,67 C-223,72.66666666666667 -223,77 -223,82 C-223,87 -222.83333333333334,91.66666666666667 -223,97 C-223.16666666666666,102.33333333333333 -223.66666666666666,108 -224,114 C-224.33333333333334,120 -224.66666666666666,127.16666666666667 -225,133 C-225.33333333333334,138.83333333333334 -225.5,144.5 -226,149 C-226.5,153.5 -227.83333333333334,156.83333333333334 -228,160 C-228.16666666666666,163.16666666666666 -230.16666666666666,167.83333333333334 -227,168 C-223.83333333333334,168.16666666666666 -214,162.66666666666666 -209,161 C-204,159.33333333333334 -202,158.5 -197,158 C-192,157.5 -185.33333333333334,157.66666666666666 -179,158 C-172.66666666666666,158.33333333333334 -167.16666666666666,159.33333333333334 -159,160 C-150.83333333333334,160.66666666666666 -137.66666666666666,161.5 -130,162 C-122.33333333333333,162.5 -117.83333333333333,162.66666666666666 -113,163 C-108.16666666666667,163.33333333333334 -105.83333333333333,163.66666666666666 -101,164 C-96.16666666666667,164.33333333333334 -89.16666666666667,164.66666666666666 -84,165 C-78.83333333333333,165.33333333333334 -74.83333333333333,165.83333333333334 -70,166 C-65.16666666666667,166.16666666666666 -61,166 -55,166 C-49,166 -40.166666666666664,166.33333333333334 -34,166 C-27.833333333333332,165.66666666666666 -23.166666666666668,164.5 -18,164 C-12.833333333333334,163.5 -8.166666666666666,163.16666666666666 -3,163 C2.1666666666666665,162.83333333333334 8.5,162.83333333333334 13,163 C17.5,163.16666666666666 19.833333333333332,163.83333333333334 24,164 C28.166666666666668,164.16666666666666 30,163.83333333333334 38,164 C46,164.16666666666666 61.5,164.66666666666666 72,165 C82.5,165.33333333333334 92.5,165.83333333333334 101,166 C109.5,166.16666666666666 116.66666666666667,166 123,166 C129.33333333333334,166 133.5,166.33333333333334 139,166 C144.5,165.66666666666666 149.16666666666666,164.66666666666666 156,164 C162.83333333333334,163.33333333333334 172.83333333333334,162.66666666666666 180,162 C187.16666666666666,161.33333333333334 192.83333333333334,160.5 199,160 C205.16666666666666,159.5 209.33333333333334,159.16666666666666 217,159 C224.66666666666666,158.83333333333334 238,158.83333333333334 245,159 C252,159.16666666666666 256,160.66666666666666 259,160 C262,159.33333333333334 262.6666666666667,158.83333333333334 263,155 C263.3333333333333,151.16666666666666 261.8333333333333,142.66666666666666 261,137 C260.1666666666667,131.33333333333334 259,127.83333333333333 258,121 C257,114.16666666666667 256.1666666666667,104.33333333333333 255,96 C253.83333333333334,87.66666666666667 252,80.33333333333333 251,71 C250,61.666666666666664 249.16666666666666,50.833333333333336 249,40 C248.83333333333334,29.166666666666668 249.33333333333334,16.166666666666668 250,6 C250.66666666666666,-4.166666666666667 252,-13.5 253,-21 C254,-28.5 254.83333333333334,-32.166666666666664 256,-39 C257.1666666666667,-45.833333333333336 258.3333333333333,-55.166666666666664 260,-62 C261.6666666666667,-68.83333333333333 264.8333333333333,-74 266,-80 C267.1666666666667,-86 266.8333333333333,-91.83333333333333 267,-98 C267.1666666666667,-104.16666666666667 267.5,-110.33333333333333 267,-117 C266.5,-123.66666666666667 264.8333333333333,-132.5 264,-138 C263.1666666666667,-143.5 262.6666666666667,-146.16666666666666 262,-150 C261.3333333333333,-153.83333333333334 260.5,-157.16666666666666 260,-161 C259.5,-164.83333333333334 259.1666666666667,-169.16666666666666 259,-173 C258.8333333333333,-176.83333333333334 261,-181.83333333333334 259,-184 C257,-186.16666666666666 252.33333333333334,-185.66666666666666 247,-186 C241.66666666666666,-186.33333333333334 233.66666666666666,-186.33333333333334 227,-186 C220.33333333333334,-185.66666666666666 212.83333333333334,-184.33333333333334 207,-184 C201.16666666666666,-183.66666666666666 197.5,-184.33333333333334 192,-184 C186.5,-183.66666666666666 179,-182.33333333333334 174,-182 C169,-181.66666666666666 164.66666666666666,-182.83333333333334 162,-182 C159.33333333333334,-181.16666666666666 158.66666666666666,-180.83333333333334 158,-177 C157.33333333333334,-173.16666666666666 158.16666666666666,-164 158,-159 C157.83333333333334,-154 157.5,-151.33333333333334 157,-147 C156.5,-142.66666666666666 155.33333333333334,-137 155,-133 C154.66666666666666,-129 155,-126.66666666666667 155,-123 C155,-119.33333333333333 155,-115.33333333333333 155,-111 C155,-106.66666666666667 154.83333333333334,-101.16666666666667 155,-97 C155.16666666666666,-92.83333333333333 155.83333333333334,-89.5 156,-86 C156.16666666666666,-82.5 156.16666666666666,-79.16666666666667 156,-76 C155.83333333333334,-72.83333333333333 157,-68.83333333333333 155,-67 C153,-65.16666666666667 150.16666666666666,-66 144,-65 C137.83333333333334,-64 125.83333333333333,-62.333333333333336 118,-61 C110.16666666666667,-59.666666666666664 105.33333333333333,-58.666666666666664 97,-57 C88.66666666666667,-55.333333333333336 75.83333333333333,-52.166666666666664 68,-51 C60.166666666666664,-49.833333333333336 56.5,-50.333333333333336 50,-50 C43.5,-49.666666666666664 35.333333333333336,-49.166666666666664 29,-49 C22.666666666666668,-48.833333333333336 17,-48.5 12,-49 C7,-49.5 3.1666666666666665,-51.166666666666664 -1,-52 C-5.166666666666667,-52.833333333333336 -9,-53 -13,-54 C-17,-55 -21,-57 -25,-58 C-29,-59 -33.166666666666664,-59.5 -37,-60 C-40.833333333333336,-60.5 -43.833333333333336,-60.666666666666664 -48,-61 C-52.166666666666664,-61.333333333333336 -57.333333333333336,-61.833333333333336 -62,-62 C-66.66666666666667,-62.166666666666664 -71.33333333333333,-61.833333333333336 -76,-62 C-80.66666666666667,-62.166666666666664 -84.83333333333333,-62.833333333333336 -90,-63 C-95.16666666666667,-63.166666666666664 -103.66666666666667,-60.666666666666664 -107,-63 C-110.33333333333333,-65.33333333333333 -109.5,-71.16666666666667 -110,-77 C-110.5,-82.83333333333333 -109.5,-92.16666666666667 -110,-98 C-110.5,-103.83333333333333 -112.33333333333333,-107 -113,-112 C-113.66666666666667,-117 -113.16666666666667,-122.83333333333333 -114,-128 C-114.83333333333333,-133.16666666666666 -117,-138 -118,-143 C-119,-148 -119.5,-153.83333333333334 -120,-158 C-120.5,-162.16666666666666 -120.66666666666667,-164.83333333333334 -121,-168 C-121.33333333333333,-171.16666666666666 -122,-174.33333333333334 -122,-177 C-122,-179.66666666666666 -121.16666666666667,-182.83333333333334 -121,-184 " stroke="none" stroke-width="5" fill="#FFFFFF"/><path d="M-203,-189 C-203.16666666666666,-188.83333333333334 -203,-189 -204,-188 C-205,-187 -209.16666666666666,-183 -209,-183 C-208.83333333333334,-183 -204,-188.5 -203,-188 C-202,-187.5 -203.16666666666666,-183 -203,-180 C-202.83333333333334,-177 -202.33333333333334,-173.33333333333334 -202,-170 C-201.66666666666666,-166.66666666666666 -201.16666666666666,-163.33333333333334 -201,-160 C-200.83333333333334,-156.66666666666666 -201,-153.33333333333334 -201,-150 C-201,-146.66666666666666 -201,-142 -201,-140 C-201,-138 -201,-138.33333333333334 -201,-138 " stroke="#000000" stroke-width="15" fill="none"/><path d="M-160,-189 C-160,-187.5 -160.16666666666666,-183 -160,-180 C-159.83333333333334,-177 -159.5,-173.83333333333334 -159,-171 C-158.5,-168.16666666666666 -157.33333333333334,-166 -157,-163 C-156.66666666666666,-160 -157.16666666666666,-156.33333333333334 -157,-153 C-156.83333333333334,-149.66666666666666 -156.33333333333334,-145.16666666666666 -156,-143 C-155.66666666666666,-140.83333333333334 -155.16666666666666,-140.5 -155,-140 " stroke="#000000" stroke-width="15" fill="none"/><path d="M182,-196 C182,-194.83333333333334 182,-192 182,-189 C182,-186 182,-181.5 182,-178 C182,-174.5 182,-171.33333333333334 182,-168 C182,-164.66666666666666 182,-161.33333333333334 182,-158 C182,-154.66666666666666 182,-149.66666666666666 182,-148 C182,-146.33333333333334 182,-148 182,-148 " stroke="#000000" stroke-width="15" fill="none"/><path d="M227,-194 C227,-192.33333333333334 227.33333333333334,-187.5 227,-184 C226.66666666666666,-180.5 225.33333333333334,-176.5 225,-173 C224.66666666666666,-169.5 225,-166.33333333333334 225,-163 C225,-159.66666666666666 225,-156.33333333333334 225,-153 C225,-149.66666666666666 225,-145.83333333333334 225,-143 C225,-140.16666666666666 225,-137.16666666666666 225,-136 " stroke="#000000" stroke-width="15" fill="none"/><path d="M-78,-78 C-78,-77.5 -78.83333333333333,-77.16666666666667 -78,-75 C-77.16666666666667,-72.83333333333333 -74.16666666666667,-68.16666666666667 -73,-65 C-71.83333333333333,-61.833333333333336 -71.33333333333333,-59.166666666666664 -71,-56 C-70.66666666666667,-52.833333333333336 -70.83333333333333,-49.333333333333336 -71,-46 C-71.16666666666667,-42.666666666666664 -71.66666666666667,-39.333333333333336 -72,-36 C-72.33333333333333,-32.666666666666664 -72.83333333333333,-28 -73,-26 C-73.16666666666667,-24 -73,-24.333333333333332 -73,-24 " stroke="#000000" stroke-width="15" fill="none"/><path d="M-21,-72 C-21.166666666666668,-70.83333333333333 -21.666666666666668,-68.33333333333333 -22,-65 C-22.333333333333332,-61.666666666666664 -22.833333333333332,-56.166666666666664 -23,-52 C-23.166666666666668,-47.833333333333336 -23,-43.833333333333336 -23,-40 C-23,-36.166666666666664 -22.833333333333332,-32.333333333333336 -23,-29 C-23.166666666666668,-25.666666666666668 -23.833333333333332,-21.5 -24,-20 " stroke="#000000" stroke-width="15" fill="none"/><path d="M28,-59 C28,-58.833333333333336 28,-59.833333333333336 28,-58 C28,-56.166666666666664 28,-51.666666666666664 28,-48 C28,-44.333333333333336 28,-39.666666666666664 28,-36 C28,-32.333333333333336 28,-29.166666666666668 28,-26 C28,-22.833333333333332 28,-18.5 28,-17 " stroke="#000000" stroke-width="15" fill="none"/><path d="M80,-62 C80,-61.833333333333336 80.16666666666667,-63.333333333333336 80,-61 C79.83333333333333,-58.666666666666664 79.33333333333333,-52 79,-48 C78.66666666666667,-44 78.16666666666667,-40.833333333333336 78,-37 C77.83333333333333,-33.166666666666664 78,-28.666666666666668 78,-25 C78,-21.333333333333332 77.83333333333333,-17.666666666666668 78,-15 C78.16666666666667,-12.333333333333334 78.83333333333333,-10 79,-9 " stroke="#000000" stroke-width="15" fill="none"/><path d="M123,-65 C122.83333333333333,-64.5 122.16666666666667,-64.83333333333333 122,-62 C121.83333333333333,-59.166666666666664 122.16666666666667,-52.166666666666664 122,-48 C121.83333333333333,-43.833333333333336 121.16666666666667,-40.666666666666664 121,-37 C120.83333333333333,-33.333333333333336 121,-29 121,-26 C121,-23 121,-20.166666666666668 121,-19 " stroke="#000000" stroke-width="15" fill="none"/><path d="M-123,168 C-123,167.5 -123.33333333333333,168.66666666666666 -123,165 C-122.66666666666667,161.33333333333334 -121.33333333333333,151.16666666666666 -121,146 C-120.66666666666667,140.83333333333334 -121.16666666666667,138 -121,134 C-120.83333333333333,130 -120.33333333333333,125.83333333333333 -120,122 C-119.66666666666667,118.16666666666667 -119.5,114.83333333333333 -119,111 C-118.5,107.16666666666667 -117.5,103.5 -117,99 C-116.5,94.5 -116.66666666666667,89.33333333333333 -116,84 C-115.33333333333333,78.66666666666667 -114.33333333333333,72.5 -113,67 C-111.66666666666667,61.5 -110.66666666666667,55.833333333333336 -108,51 C-105.33333333333333,46.166666666666664 -101.83333333333333,42.333333333333336 -97,38 C-92.16666666666667,33.666666666666664 -85.33333333333333,29.166666666666668 -79,25 C-72.66666666666667,20.833333333333332 -65.83333333333333,16.833333333333332 -59,13 C-52.166666666666664,9.166666666666666 -45,5 -38,2 C-31,-1 -24.5,-3.3333333333333335 -17,-5 C-9.5,-6.666666666666667 0.16666666666666666,-7.833333333333333 7,-8 C13.833333333333334,-8.166666666666666 17.833333333333332,-7.333333333333333 24,-6 C30.166666666666668,-4.666666666666667 37.666666666666664,-1.6666666666666667 44,0 C50.333333333333336,1.6666666666666667 56.333333333333336,2.6666666666666665 62,4 C67.66666666666667,5.333333333333333 73.16666666666667,7 78,8 C82.83333333333333,9 85.66666666666667,8.666666666666666 91,10 C96.33333333333333,11.333333333333334 104.16666666666667,13.833333333333334 110,16 C115.83333333333333,18.166666666666668 121.16666666666667,20.333333333333332 126,23 C130.83333333333334,25.666666666666668 135.5,28.833333333333332 139,32 C142.5,35.166666666666664 144.66666666666666,38.333333333333336 147,42 C149.33333333333334,45.666666666666664 151.66666666666666,49.5 153,54 C154.33333333333334,58.5 154.66666666666666,64.33333333333333 155,69 C155.33333333333334,73.66666666666667 154.83333333333334,77.83333333333333 155,82 C155.16666666666666,86.16666666666667 155.83333333333334,89.66666666666667 156,94 C156.16666666666666,98.33333333333333 156,102.83333333333333 156,108 C156,113.16666666666667 156,119.16666666666667 156,125 C156,130.83333333333334 156,138.16666666666666 156,143 C156,147.83333333333334 156,150.5 156,154 C156,157.5 156,160.66666666666666 156,164 C156,167.33333333333334 156,171.5 156,174 C156,176.5 156,178.16666666666666 156,179 " stroke="none" stroke-width="15" fill="#000000"/><path d="M-138,-21 C-138.16666666666666,-20.666666666666668 -139.33333333333334,-20.666666666666668 -139,-19 C-138.66666666666666,-17.333333333333332 -136.66666666666666,-14 -136,-11 C-135.33333333333334,-8 -135.16666666666666,-4.333333333333333 -135,-1 C-134.83333333333334,2.3333333333333335 -134.66666666666666,5.833333333333333 -135,9 C-135.33333333333334,12.166666666666666 -136.66666666666666,14.833333333333334 -137,18 C-137.33333333333334,21.166666666666668 -137,26.333333333333332 -137,28 C-137,29.666666666666668 -137,28 -137,28 " stroke="#000000" stroke-width="15" fill="none"/></g>
        <!-- 
        <text x="10" y="460" id="footerText">Texto</text>
         -->
         <g transform="translate(0, 440)" display="none" id="gFooterText">
	         <rect fill="black" height="40" width="100%"/>
	         <text fill="white" font-weight="bold" font-family="Verdana" font-size="14" y="20" x="10" id="footerText"/>
         </g>
    </svg>