<svg xmlns:xlink="http://www.w3.org/1999/xlink" xmlns="http://www.w3.org/2000/svg" height="480" width="640" version="1.1" id="mySVG"><defs><pattern id="mancha2.png" x="0" y="0" patternUnits="userSpaceOnUse" width="10" height="10"><image x="0" y="0" width="10" height="10" xlink:href="http://localhost/dibujo2D/patterns/mancha2.png"/></pattern><pattern id="mancha1.png" x="0" y="0" patternUnits="userSpaceOnUse" width="10" height="10"><image x="0" y="0" width="10" height="10" xlink:href="http://localhost/dibujo2D/patterns/mancha1.png"/></pattern><pattern id="mancha3.png" x="0" y="0" patternUnits="userSpaceOnUse" width="40" height="40"><image x="0" y="0" width="40" height="40" xlink:href="http://localhost/dibujo2D/patterns/mancha3.png"/></pattern><pattern id="mancha3.jpg" x="0" y="0" patternUnits="userSpaceOnUse" width="40" height="40"><image x="0" y="0" width="40" height="40" xlink:href="http://localhost/dibujo2D/patterns/mancha3.jpg"/></pattern></defs>
        <!--
        <defs>
	        <pattern id="myPattern" x="0" y="0" patternUnits="objectBoundingBox" patternContentUnits="objectBoundingBox" width="40" height="40">
	            <image x="0" y="0" width="40" height="40" xlink:href="http://localhost/dibujo2D/resources/mancha3.png"/>
	        </pattern>
            <pattern id="mancha3" x="0" y="0" width="20" height="20" patternUnits="userSpaceOnUse">
                 <image x="0" y="0" width="20" height="20" xlink:href="http://localhost/dibujo2D/resources/mancha3.png"/>
            </pattern>
        </defs>
        -->
            
        <!--
        <defs>
            <pattern id="myPattern2" x="0" y="0" width="10" height="10" patternUnits="objectBoundingBox" patternContentUnits="objectBoundingBox">
                <image x="10" y="10" width="10" height="10" xlink:href="http://localhost/dibujo2D/resources/mancha1.png"/>
            </pattern>

	        <pattern id="myPattern3" x="0" y="0" width="20%" height="20%" patternUnits="objectBoundingBox">
	            <image x="10" y="10" width="10" height="10" xlink:href="http://localhost/dibujo2D/resources/mancha1.png"/>
	        </pattern>

            <pattern id="myPattern" x="-5" y="-5" width="20" height="20" patternUnits="userSpaceOnUse">
                 <image x="0" y="0" width="20" height="20" xlink:href="http://localhost/dibujo2D/resources/mancha3.png"/>
            </pattern>
            
            <pattern id="test" patternUnits="userSpaceOnUse"
                 x="0" y="0" width="10" height="10"
                 viewBox="0 0 10 10" >
                <image xlink:href="http://localhost/dibujo2D/resources/mancha1.png"/>
            </pattern> 
        </defs>
        -->        
        <g id="mainGroup" transform="scale(1) translate(320, 240)"><path d="M-163,-90 C-124.66666666666667,-105.66666666666667 8.833333333333334,-190.5 67,-184 C125.16666666666667,-177.5 207.66666666666666,-87.83333333333333 186,-51 C164.33333333333334,-14.166666666666666 4.166666666666667,46 -63,37 C-130.16666666666666,28 -196.83333333333334,-76.16666666666667 -217,-105 C-237.16666666666666,-133.83333333333334 -189.66666666666666,-130.83333333333334 -184,-136 C-178.33333333333334,-141.16666666666666 -183.16666666666666,-136 -183,-136 " style="stroke : #000000;stroke-width : 5;fill: none;"/><path d="M35,49 C47.833333333333336,47.5 82.66666666666667,30.666666666666668 112,40 C141.33333333333334,49.333333333333336 212.16666666666666,86.66666666666667 211,105 C209.83333333333334,123.33333333333333 141.66666666666666,159.33333333333334 105,150 C68.33333333333333,140.66666666666666 -0.3333333333333333,71 -9,49 C-17.666666666666668,27 38.5,23.5 53,18 C67.5,12.5 73.83333333333333,16.333333333333332 78,16 " style="stroke : #000000;stroke-width : 5;fill: url(#mancha3.png);"/><path d="M40,-106  C40,-92.66666666666667 30.333333333333332,-40.333333333333336 40,-26  C49.666666666666664,-11.666666666666666 80.83333333333333,-14 98,-20  C115.16666666666667,-26 138.33333333333334,-48.833333333333336 143,-62  C147.66666666666666,-75.16666666666667 141.33333333333334,-92.5 126,-99  C110.66666666666667,-105.5 63.5,-100.66666666666667 51,-101 "  style="stroke : #000000;stroke-width : 5;fill: url(#mancha3.png);"/></g>
        <text id="footerText" fill="blue" font-size="14" font-family="Verdana" y="460" x="10"/>
    </svg>